<!DOCTYPE svg PUBLIC "-//W3C//DTD SVG 1.1//EN" "http://www.w3.org/Graphics/SVG/1.1/DTD/svg11.dtd">
<!-- Uploaded to: SVG Find, www.svgrepo.com, Transformed by: SVG Find Mixer Tools -->
<svg fill="#616ae5" width="100px" height="100px" version="1.1" viewBox="144 144 512 512" xmlns="http://www.w3.org/2000/svg" stroke="#616ae5">
<g id="SVGRepo_bgCarrier" stroke-width="0"/>
<g id="SVGRepo_tracerCarrier" stroke-linecap="round" stroke-linejoin="round"/>
<g id="SVGRepo_iconCarrier"> <path d="m534.35 416.79c-4.6602 0-9.2188 0.49219-13.613 1.3945l-9.7422-23.488c7.4766-1.9531 15.266-3.0977 23.355-3.0977h33.582l16.797-33.59-50.383-8.3984v-16.793h30.996l-64.578-83.961h-16.793l16.793 67.172h-67.176l-50.383 33.59h-50.383l-134.34-25.191v26.223l117.55 40.949 33.59 75.57-18.645 1.6914c-6.8711-29.801-33.438-52.074-65.32-52.074-37.121 0.003906-67.18 30.086-67.18 67.184 0 37.094 30.059 67.172 67.172 67.172 31.258 0 57.305-21.469 64.797-50.383h111.54v-16.793c0-33.98 18.398-63.602 45.742-79.641l9.7578 23.566c-18.234 12.004-30.309 32.605-30.309 56.074 0 37.098 30.062 67.176 67.176 67.176 37.098 0 67.176-30.078 67.176-67.172 0-37.098-30.078-67.18-67.176-67.18zm-239.77 83.973c-5.8242 10-16.531 16.793-28.93 16.793-18.566 0-33.59-15.035-33.59-33.582 0-18.555 15.02-33.594 33.586-33.594 14.297 0 26.434 8.9883 31.281 21.582l-39.676 3.6094v25.191zm239.77 16.789c-18.57 0-33.59-15.035-33.59-33.582 0-9.3672 3.8555-17.828 10.035-23.93l15.121 36.508 23.27-9.6445-15.121-36.484c0.10156 0 0.17969-0.035157 0.28125-0.035157 18.551 0 33.582 15.039 33.582 33.59 0.007813 18.547-15.027 33.578-33.578 33.578z"/> </g>
</svg>