<!DOCTYPE svg PUBLIC "-//W3C//DTD SVG 1.1//EN" "http://www.w3.org/Graphics/SVG/1.1/DTD/svg11.dtd">
<!-- Uploaded to: SVG Find, www.svgrepo.com, Transformed by: SVG Find Mixer Tools -->
<svg fill="#616ae5" width="100px" height="100px" version="1.1" viewBox="144 144 512 512" xmlns="http://www.w3.org/2000/svg">
<g id="SVGRepo_bgCarrier" stroke-width="0"/>
<g id="SVGRepo_tracerCarrier" stroke-linecap="round" stroke-linejoin="round"/>
<g id="SVGRepo_iconCarrier"> <g> <path d="m274.05 299.24c0-13.91-25.191-50.383-25.191-50.383s-25.191 36.473-25.191 50.383c0 13.91 11.281 25.188 25.191 25.188 13.91 0 25.191-11.277 25.191-25.188z"/> <path d="m248.86 400c0 13.91 11.281 25.188 25.191 25.188s25.191-11.277 25.191-25.188-25.191-50.383-25.191-50.383-25.191 36.473-25.191 50.383z"/> <path d="m525.95 299.24h-50.379l-50.383-50.383-16.281 16.285-48.219-48.223c-11.902-11.895-27.711-18.441-44.531-18.441h-67.301v25.188h67.301c10.09 0 19.582 3.9297 26.715 11.066l48.219 48.219-16.281 16.289 50.379 50.379-50.379 50.383v151.14c0 27.824 22.555 50.383 50.379 50.383h125.95v-125.95l25.191-25.191v-100.76c0-27.824-22.555-50.379-50.383-50.379zm-25.188 277.09h-75.574c-13.91 0-25.188-11.281-25.188-25.191v-125.95h50.379c0 20.629 0 72.602-23.859 120.32l22.531 11.266c26.52-53.039 26.52-109.18 26.52-131.59 13.91 0 25.191 11.281 25.191 25.191z"/> </g> </g>
</svg>