<!DOCTYPE svg PUBLIC "-//W3C//DTD SVG 1.1//EN" "http://www.w3.org/Graphics/SVG/1.1/DTD/svg11.dtd">

<!-- Uploaded to: SVG Find, www.svgrepo.com, Transformed by: SVG Find Mixer Tools -->
<svg fill="#4932b8" width="100px" height="100px" version="1.1" viewBox="144 144 512 512" xmlns="http://www.w3.org/2000/svg" stroke="#4932b8">


<g id="SVGRepo_bgCarrier" stroke-width="0"/>

<g id="SVGRepo_tracerCarrier" stroke-linecap="round" stroke-linejoin="round"/>

<g id="SVGRepo_iconCarrier"> <path d="m169.09 316.03v-41.984c0.019531-16.699 6.6602-32.707 18.465-44.512 11.809-11.805 27.816-18.445 44.512-18.465h62.977v62.977c0 7.5 4 14.43 10.496 18.18 6.4922 3.75 14.496 3.75 20.992 0 6.4922-3.75 10.496-10.68 10.496-18.18v-62.977h125.95v62.977c0 7.5 4 14.43 10.496 18.18 6.4922 3.75 14.496 3.75 20.988 0 6.4961-3.75 10.496-10.68 10.496-18.18v-62.977h62.977c16.699 0.019532 32.707 6.6602 44.512 18.465 11.809 11.805 18.449 27.812 18.465 44.512v41.984zm461.82 41.984v209.92c-0.015625 16.699-6.6562 32.707-18.465 44.512-11.805 11.809-27.812 18.449-44.512 18.465h-335.87c-16.695-0.015625-32.703-6.6562-44.512-18.465-11.805-11.805-18.445-27.812-18.465-44.512v-209.92zm-251.9 146.94c0-5.5664-2.2109-10.906-6.1484-14.844s-9.2773-6.1484-14.844-6.1484h-83.969c-7.5 0-14.43 4.0039-18.18 10.496-3.75 6.4961-3.75 14.5 0 20.992 3.75 6.4961 10.68 10.496 18.18 10.496h83.969c5.5664 0.003906 10.906-2.207 14.844-6.1445s6.1484-9.2773 6.1484-14.848zm0-83.969v0.003907c0-5.5703-2.2109-10.91-6.1484-14.848s-9.2773-6.1484-14.844-6.1445h-83.969c-7.5 0-14.43 4-18.18 10.496-3.75 6.4922-3.75 14.496 0 20.992 3.75 6.4922 10.68 10.496 18.18 10.496h83.969c5.5664 0 10.906-2.2109 14.844-6.1484s6.1484-9.2773 6.1484-14.844zm167.94 83.969h-0.003906c0.003906-5.5664-2.207-10.906-6.1445-14.844s-9.2773-6.1484-14.848-6.1484h-83.965c-7.5 0-14.43 4.0039-18.18 10.496-3.75 6.4961-3.75 14.5 0 20.992 3.75 6.4961 10.68 10.496 18.18 10.496h83.969-0.003906c5.5703 0.003906 10.91-2.207 14.848-6.1445s6.1484-9.2773 6.1445-14.848zm0-83.969-0.003906 0.003907c0.003906-5.5703-2.207-10.91-6.1445-14.848s-9.2773-6.1484-14.848-6.1445h-83.965c-7.5 0-14.43 4-18.18 10.496-3.75 6.4922-3.75 14.496 0 20.992 3.75 6.4922 10.68 10.496 18.18 10.496h83.969-0.003906c5.5703 0 10.91-2.2109 14.848-6.1484s6.1484-9.2773 6.1445-14.844z"/> </g>

</svg>