<!DOCTYPE svg PUBLIC "-//W3C//DTD SVG 1.1//EN" "http://www.w3.org/Graphics/SVG/1.1/DTD/svg11.dtd">
<!-- Uploaded to: SVG Find, www.svgrepo.com, Transformed by: SVG Find Mixer Tools -->
<svg fill="#616ae5" width="100px" height="100px" version="1.1" viewBox="144 144 512 512" xmlns="http://www.w3.org/2000/svg">
<g id="SVGRepo_bgCarrier" stroke-width="0"/>
<g id="SVGRepo_tracerCarrier" stroke-linecap="round" stroke-linejoin="round"/>
<g id="SVGRepo_iconCarrier"> <g> <path d="m324.74 500.22c10.258-0.003906 19.996 4.5117 26.617 12.348 0.63281 0.70313 1.2227 1.4492 1.7617 2.2305 0.77344 1.0664 1.4727 2.1875 2.0938 3.3477 2.0742-1.6719 3.9688-3.5547 5.6523-5.6172 1.6797-2.0117 3.1523-4.1875 4.3945-6.4922 3.2031-6.0469 5.1133-12.691 5.6133-19.516 1.0625-14.125-2.6289-28.195-10.484-39.98-8.0586-12.758-15.254-26.039-21.547-39.754-10.746-23.332-18.484-47.93-23.031-73.211-0.8125-4.4648-1.6914-8.7578-2.6406-12.82-1.6016-7.0508-5.5508-13.348-11.203-17.855-5.6484-4.5117-12.664-6.9688-19.895-6.9688-1.457 0-2.7539 0.13281-4.1953 0.26953l-0.53906 0.035156c-1.3984 0.21875-2.7852 0.51562-4.1523 0.88672v-13.773c7.4727-0.11328 14.656-2.9023 20.242-7.8672 5.5859-4.9609 9.2031-11.766 10.191-19.176l4.9727-37.582v0.003907c1.0703-8.1797-1.1445-16.453-6.1602-23.004-5.0195-6.5508-12.43-10.844-20.605-11.938-1.3633-0.17969-2.7344-0.26953-4.1055-0.26953-7.543 0.019531-14.82 2.7734-20.488 7.75-5.668 4.9727-9.3438 11.832-10.344 19.309l-4.9766 37.582h0.003906c-1.0234 7.7891 0.93359 15.676 5.4805 22.082s11.348 10.859 19.039 12.465v17.008-0.003906c-8.0273 3.8516-14.398 10.473-17.941 18.641-3.543 8.1719-4.0195 17.344-1.3438 25.84l51.578 167.63c6.5898-7.4375 16.074-11.668 26.012-11.602z"/> <path d="m352.95 535.2c-0.12109-10-5.5234-19.188-14.203-24.156-8.6797-4.9648-19.34-4.9648-28.02 0-8.6797 4.9688-14.082 14.156-14.203 24.156 0.12109 10 5.5234 19.191 14.203 24.156 8.6797 4.9648 19.34 4.9648 28.02 0 8.6797-4.9648 14.082-14.156 14.203-24.156z"/> <path d="m557.52 520.28c-1.3594-10.387-6.793-19.809-15.105-26.184-8.3125-6.3789-18.824-9.1875-29.207-7.8047l-139.93 18.668c-0.61328 1.4766-1.3047 2.9219-2.0664 4.3281-1.4688 2.6836-3.1914 5.2227-5.1406 7.5781-1.9805 2.4023-4.1953 4.6016-6.6133 6.5664l-1.4531 1.1484c1.125 3.4297 1.6953 7.0156 1.6914 10.625-0.015624 9.2734-3.707 18.16-10.262 24.715-6.5547 6.5547-15.441 10.246-24.711 10.262-1.1523 0-2.2656-0.066407-3.3867-0.16797v14.344l210.95-0.003907 0.8125-0.54297c19.684-12.723 28.105-34.711 24.422-63.531z"/> <path d="m321.35 591.11v4.6992c0.007813 5.4805 2.1875 10.734 6.0625 14.605 3.875 3.875 9.1289 6.0547 14.605 6.0625h172c5.4766-0.015625 10.723-2.1953 14.59-6.0703 3.8672-3.875 6.0391-9.125 6.043-14.598v-4.918l-0.30469 0.20312z"/> </g> </g>
</svg>