<!DOCTYPE svg PUBLIC "-//W3C//DTD SVG 1.1//EN" "http://www.w3.org/Graphics/SVG/1.1/DTD/svg11.dtd">
<!-- Uploaded to: SVG Find, www.svgrepo.com, Transformed by: SVG Find Mixer Tools -->
<svg width="100px" height="100px" version="1.1" viewBox="144 144 512 512" xmlns="http://www.w3.org/2000/svg" fill="#616ae5">
<g id="SVGRepo_bgCarrier" stroke-width="0"/>
<g id="SVGRepo_tracerCarrier" stroke-linecap="round" stroke-linejoin="round"/>
<g id="SVGRepo_iconCarrier"> <defs> <clipPath id="a"> <path d="m148.09 161h503.81v478h-503.81z"/> </clipPath> </defs> <g clip-path="url(#a)"> <path d="m152.03 460.99 55.477 32.027c1.8047 1.0469 3.957 1.3281 5.9727 0.78516 2.0156-0.53906 3.7344-1.8594 4.7773-3.668l2-3.4609 32.129 18.809c-0.76172 2.7344-1.1445 5.5547-1.1445 8.3906-0.03125 8.2227 3.2266 16.117 9.0508 21.922 5.8125 5.8164 13.699 9.082 21.922 9.0664 0.59766 0 1.1953-0.023437 1.793-0.058594-0.035156 0.58984-0.054687 1.1797-0.054687 1.7812-0.015625 8.2227 3.2422 16.109 9.0547 21.926 5.8125 5.8125 13.699 9.0703 21.922 9.0508 0.60156 0 1.1992-0.023438 1.793-0.054688-0.035156 0.59375-0.054687 1.1914-0.054687 1.793-0.019531 8.2188 3.2383 16.109 9.0508 21.922s13.703 9.0703 21.922 9.0547c2.1797 0 4.3555-0.22656 6.4883-0.67969 0.98828 6.0742 4.1094 11.594 8.8008 15.574 4.6914 3.9805 10.648 6.1602 16.801 6.1445 3.1133 0.003906 6.1992-0.55078 9.1172-1.6367l1.5625 1.5625c4.5195 4.5273 10.555 7.2266 16.941 7.5781 6.3906 0.34766 12.684-1.6719 17.672-5.6797 4.9883-4.0078 8.3203-9.7148 9.3555-16.027 2.1328 0.45312 4.3047 0.68359 6.4844 0.6875 8.5352 0.011719 16.691-3.5 22.547-9.707 5.8594-6.207 8.8906-14.555 8.3867-23.074 0.58984 0.035156 1.1797 0.054687 1.7812 0.054687 8.5312 0.015626 16.691-3.4922 22.551-9.6953 5.8555-6.207 8.8906-14.555 8.3828-23.07 0.58984 0.035156 1.1797 0.054687 1.7812 0.054687 7.6055-0.007813 14.941-2.8125 20.617-7.8789 5.6719-5.0625 9.2891-12.039 10.156-19.594 0.86328-7.5547-1.0742-15.168-5.4531-21.387l43.426-24.969 6.6992 11.602c2.1719 3.7656 6.9883 5.0547 10.754 2.8828l55.477-32.023v-0.003907c3.7617-2.1719 5.0547-6.9883 2.8789-10.754l-72.758-126.02c-2.1719-3.7617-6.9883-5.0547-10.75-2.8789l-55.477 32.027c-3.7656 2.1758-5.0547 6.9883-2.8828 10.754l6.4336 11.145-9.1953 3.4805c-4.2188 1.6914-8.9102 1.7852-13.195 0.26953l-61.316-20.438v-0.003907c-6.875-2.3516-14.406-1.8359-20.895 1.4258l-12.203 6.0156c-0.11328-0.070313-0.22656-0.14453-0.34766-0.20703l-14.535-7.6758c-7.9492-4.2617-17.492-4.3203-25.492-0.15625l-19.402 9.9375-0.003906 0.003906c-1.4688 0.82031-3.1211 1.2617-4.8086 1.2852l-46.25 0.53125 3.2422-5.6172c2.1758-3.7656 0.88672-8.5781-2.8789-10.754l-55.473-32.027v0.003907c-3.7656-2.1758-8.5781-0.88281-10.754 2.8789l-72.758 126.02c-2.1719 3.7656-0.88281 8.582 2.8828 10.754zm119.39 63.676c-2.8477-2.8711-4.4414-6.75-4.4414-10.789 0-4.043 1.5938-7.9219 4.4414-10.793l27.684-27.684v0.003906c3.8594-3.8359 9.4648-5.3242 14.719-3.9102 5.2539 1.4141 9.3555 5.5195 10.77 10.77 1.4141 5.2539-0.078125 10.863-3.9102 14.723l-27.68 27.68c-2.8672 2.8555-6.7461 4.4609-10.793 4.4609-4.043 0-7.9258-1.6055-10.789-4.4609zm32.715 32.715c-2.8438-2.8711-4.4414-6.7461-4.4453-10.789 0-4.0391 1.5938-7.918 4.4375-10.789l0.007813-0.007812 27.684-27.68h-0.003907c3.8672-3.8047 9.4609-5.2734 14.695-3.8555 5.2383 1.4141 9.3281 5.5039 10.746 10.742 1.4141 5.2344-0.054688 10.832-3.8594 14.695l-27.684 27.684c-2.8633 2.8555-6.7422 4.4609-10.789 4.4609-4.0469 0-7.9258-1.6055-10.789-4.4609zm32.715 32.715-0.003907-0.003906c-2.8555-2.8633-4.4609-6.7461-4.4609-10.789 0-4.0469 1.6055-7.9297 4.4609-10.793l27.68-27.68h0.003906c3.8555-3.8555 9.4727-5.3594 14.738-3.9492 5.2656 1.4102 9.3789 5.5234 10.793 10.789 1.4102 5.2656-0.097656 10.887-3.9531 14.742-0.26172 0.26562-0.50781 0.55469-0.73047 0.85547-0.82422 0.64453-1.6133 1.3398-2.3555 2.0781l-21.66 21.656v0.003906c-0.73828 0.74219-1.4336 1.5312-2.082 2.3594-0.30078 0.22266-0.58594 0.46484-0.85156 0.73047-2.8633 2.8555-6.7461 4.4609-10.789 4.4609-4.0469 0-7.9297-1.6055-10.793-4.4648zm35.652 22.508-0.003906-0.003906c-3.9922-3.9922-3.9922-10.469 0-14.465l21.656-21.656c3.9961-3.9961 10.473-3.9961 14.465 0 3.9961 3.9961 3.9961 10.469 0 14.465l-21.656 21.656c-4.0078 3.9688-10.461 3.9688-14.465 0zm43.5 7.5117-0.003906-0.003906c-3.9609 3.9492-10.359 3.9883-14.363 0.085937l14.453-14.453c3.9023 4.0078 3.8633 10.406-0.089844 14.367zm35.652-22.508v-0.003907c-2.8672 2.8594-6.7461 4.4609-10.793 4.4609-4.043 0-7.9219-1.6016-10.789-4.4609-0.26562-0.26172-0.55469-0.50781-0.85547-0.73047-0.64453-0.82812-1.3398-1.6133-2.0781-2.3555l-1.5078-1.5078c2.8047-7.2812 2.1797-15.441-1.7031-22.211-3.8789-6.7695-10.602-11.434-18.301-12.695 0.85938-4.0469 0.90625-8.2266 0.14063-12.293 2.8945-1.6094 6.2383-2.2344 9.5234-1.7773s6.332 1.9688 8.6797 4.3086l27.684 27.684c2.8555 2.8633 4.4609 6.7422 4.4609 10.789s-1.6055 7.9258-4.4609 10.789zm32.715-32.715h-0.003906c-2.8672 2.8438-6.7461 4.4375-10.789 4.4375-4.0391 0-7.918-1.5938-10.789-4.4375l-27.684-27.684c-3.7383-3.875-5.1602-9.4336-3.7383-14.629 1.4258-5.1953 5.4805-9.2539 10.672-10.684 5.1953-1.4258 10.754-0.011719 14.633 3.7227v0.007812l27.684 27.68c2.8594 2.8633 4.4648 6.7461 4.4688 10.789 0 4.0469-1.6016 7.9297-4.4609 10.797zm32.711-32.715c-2.8633 2.8555-6.7461 4.4609-10.789 4.4609-4.0469 0-7.9258-1.6055-10.789-4.4609l-27.684-27.684c-3.8086-3.8633-5.2773-9.457-3.8594-14.695 1.418-5.2344 5.5078-9.3242 10.742-10.742 5.2383-1.418 10.832 0.050781 14.695 3.8594l27.68 27.688c2.8438 2.8711 4.4414 6.7461 4.4414 10.789s-1.5977 7.918-4.4414 10.789zm51.312-193.27 64.887 112.38-41.84 24.156-64.891-112.39zm-150.62 35.215c2.7656-1.4492 6.0156-1.6719 8.9531-0.61328l61.32 20.441c7.7227 2.6484 16.137 2.4805 23.75-0.48047l11.598-4.3945 43.777 75.824-46.68 26.84-19.957-19.957h-0.003906c-2.1133-2.1133-4.5195-3.9102-7.1523-5.332l-62.754-47.047c-3.9883-2.9844-8.75-4.7617-13.719-5.1172l-9.2227-0.8125h0.003906c-5.1641-0.49609-10.363 0.49219-14.98 2.8516-4.6211 2.3594-8.4727 5.9883-11.098 10.461l-12.223 20.102v0.003906c-0.37109 0.69531-1.1523 1.0703-1.9258 0.92578l-18.598-2.3438v0.003906c-0.57031-0.074218-1.0781-0.38672-1.3945-0.86719-0.31641-0.47656-0.41016-1.0664-0.25391-1.6211l9.7422-34.539c0.83984-3.2578 3.0938-5.9648 6.1445-7.3828zm-83.57 10.824v-0.003906c4.1172-0.042968 8.168-1.0781 11.805-3.0156l19.402-9.9375c3.4297-1.8477 7.5664-1.8242 10.973 0.066407l4.8125 2.5391-25.059 12.352c-7.0625 3.3828-12.297 9.6719-14.336 17.23l-9.7422 34.539c-1.3984 4.9648-0.56641 10.293 2.2812 14.594 2.8516 4.3008 7.4336 7.1445 12.551 7.7891l18.598 2.3398c3.3945 0.45703 6.8438-0.09375 9.9297-1.5781 3.082-1.4883 5.6602-3.8477 7.418-6.7852l12.227-20.102h-0.003906c2.2695-3.9883 6.6758-6.2656 11.242-5.8125l9.2188 0.8125c2.0469 0.10156 4.0156 0.80859 5.6602 2.0312l44.641 33.465h-0.003906c-5.4297 2.4531-10.035 6.4258-13.262 11.438-3.2266 5.0078-4.9375 10.844-4.9258 16.805 0 0.59766 0.023438 1.1914 0.054688 1.7812-8.5156-0.50781-16.863 2.5234-23.07 8.3828-6.2031 5.8555-9.7148 14.016-9.6953 22.551 0 0.59766 0.023437 1.1914 0.054687 1.7812-5.543-0.32422-11.066 0.84375-16.004 3.3789-0.54688-0.64453-1.1172-1.2773-1.7227-1.8828-6.2539-6.2539-14.887-9.5352-23.715-9.0078 0.035156-0.58984 0.054688-1.1797 0.054688-1.7812h-0.003907c0.019531-8.5352-3.4844-16.695-9.6875-22.555-6.1992-5.8594-14.547-8.8945-23.062-8.3906 0.50391-8.5156-2.5312-16.859-8.3867-23.062-5.8594-6.2031-14.016-9.7109-22.547-9.6953-8.2227-0.03125-16.117 3.2305-21.922 9.0547l-27.633 27.641-32.215-18.863 50.492-87.457zm-102.6-46.039 41.84 24.156-64.887 112.39-41.84-24.156zm168.39 6.7656c24.465 0 47.93-9.7188 65.23-27.02 17.301-17.301 27.02-40.766 27.02-65.23 0-24.469-9.7188-47.934-27.02-65.234s-40.766-27.02-65.23-27.02-47.93 9.7188-65.23 27.02-27.02 40.766-27.02 65.23c0.027344 24.461 9.7539 47.906 27.047 65.203 17.297 17.293 40.742 27.023 65.203 27.051zm0-168.76c20.289 0 39.75 8.0586 54.098 22.406 14.348 14.352 22.41 33.809 22.41 54.102 0 20.289-8.0625 39.75-22.41 54.098-14.348 14.348-33.809 22.41-54.098 22.41-20.293 0-39.75-8.0625-54.102-22.41-14.348-14.348-22.406-33.809-22.406-54.098 0.023437-20.285 8.0898-39.73 22.434-54.074s33.789-22.41 54.074-22.434zm-35.02 76.875c-1.2266-1.6875-1.7344-3.793-1.4062-5.8555 0.32422-2.0625 1.457-3.9102 3.1445-5.1406 3.5195-2.5547 8.4414-1.7773 10.996 1.7422l12.051 16.582 40.109-32.859c3.3672-2.7188 8.2969-2.2148 11.039 1.1328 2.7422 3.3477 2.2695 8.2812-1.0625 11.047l-46.562 38.145c-1.6758 1.3711-3.8438 1.9922-5.9922 1.7188-2.1523-0.27734-4.0898-1.4297-5.3633-3.1797z"/> </g> </g>
</svg>